<?xml version="1.0" encoding="utf-8"?>
<!-- Generator: Adobe Illustrator 21.1.0, SVG Export Plug-In . SVG Version: 6.00 Build 0)  -->
<svg version="1.1" id="Capa_1" xmlns="http://www.w3.org/2000/svg" xmlns:xlink="http://www.w3.org/1999/xlink" x="0px" y="0px"
	 viewBox="0 0 98.3 67" style="enable-background:new 0 0 98.3 67;" xml:space="preserve">
<style type="text/css">
	.st0{fill:#FFFFFF;}
	.st1{fill:#97BDFF;}
	.st2{fill:#4C88F2;}
	.st3{fill:#F9D63E;}
	.st4{fill:#ED7D2B;}
	.st5{fill:#2C3A64;}
	.st6{fill:#005695;}
</style>
<g>
	<g>
		<g>
			<path class="st0" d="M95.2,51.4c0,0.3-0.1,0.7-0.3,0.9c-0.4,0.4-1.1,0.3-1.4-0.1c-0.4-0.4-1.6-1.5-2.8-1.5c-0.6,0-1,0.3-1.5,0.8
				c-1.8,2,0.8,4.9,0.8,4.9c0.4,0.4,0.3,1.1-0.1,1.4c-0.4,0.4-1.1,0.3-1.4-0.1c-1.3-1.5-3.2-5-0.8-7.6c0.9-0.9,1.9-1.4,3-1.4
				c1,0,2,0.4,3.1,1.1c0.7,0.5,1.2,1,1.2,1.1C95.1,51,95.2,51.2,95.2,51.4z"/>
		</g>
		<g>
			<path class="st0" d="M88.7,50.9c0,0.2-0.1,0.4-0.2,0.5c-0.3,0.3-0.7,0.3-1,0.1l-2.4-2.1c-0.3-0.3-0.3-0.7-0.1-1
				c0.3-0.3,0.7-0.3,1-0.1l2.4,2.1C88.6,50.5,88.7,50.7,88.7,50.9z"/>
		</g>
	</g>
	<g>
		<path class="st1" d="M86.4,50.3l-0.2,0.1c-0.2,0.2-0.5,0.3-0.7,0.4c0,0,0,0,0,0c-1.6,0.7-3.5,0.3-4.8-0.9
			c-2.7-2.7-6.2-4.5-10.5-5.5c-0.2,0-0.3-0.1-0.5-0.1c-1.6-0.3-3.2-0.5-4.4-0.6c-1.9-0.1-3.5-1.6-3.7-3.6l0-0.1l-0.1-0.7
			c-0.2-1.7,1.2-3.1,2.9-3.1c1.7,0,3.8,0.2,6.3,0.7c1.6,0.3,3.4,0.8,5.1,1.4c3.9,1.4,7.9,3.7,11.3,7.5
			C88.2,47.2,87.9,49.3,86.4,50.3z"/>
	</g>
	<path class="st2" d="M85.5,50.8c-1.6,0.7-3.5,0.3-4.8-0.9c-2.7-2.7-6.2-4.5-10.5-5.5c-0.2,0-0.3-0.1-0.5-0.1
		c0.4-3.6,0.8-7.2,0.8-7.2l0.2-0.1c1.6,0.3,3.4,0.8,5.1,1.4c0,0-0.8,3.6,2.2,5.4C80.8,45.4,83.3,51.6,85.5,50.8z"/>
	<g>
		<path class="st3" d="M39.5,34.4c-1.5-1.4-1-3.7-0.9-3.8l1.4,0.4l-0.7-0.2l0.7,0.2c0,0-0.3,1.4,0.5,2.1L39.5,34.4z"/>
	</g>
	<g>
		<path class="st3" d="M59.9,34.4c1.5-1.4,1-3.7,0.9-3.8l-1.4,0.4l0.7-0.2l-0.7,0.2c0,0,0.3,1.4-0.5,2.1L59.9,34.4z"/>
	</g>
	<path class="st4" d="M26.4,35.6v31.2h38.8V35.6c0-1.4-1.1-2.5-2.5-2.5H28.9c-0.5,0-0.9,0.1-1.3,0.3c-0.5,0.3-0.9,0.7-1.1,1.2
		C26.4,34.9,26.4,35.2,26.4,35.6z"/>
	<path class="st3" d="M35.3,35.6v31.2h38.8V35.6c0-1.4-1.1-2.5-2.5-2.5H37.8C36.4,33,35.3,34.2,35.3,35.6z"/>
	<rect x="45.7" y="31.5" class="st1" width="12.3" height="1.6"/>
	<rect x="40.9" y="31.5" class="st2" width="7.1" height="1.6"/>
	<path class="st1" d="M70.5,36.9l-1.8,2.2c-0.3,0.4-0.9,0.4-1.2,0l-0.7-0.9l-1.1-1.4c-0.2-0.3,0-0.7,0.4-0.7h4.1
		C70.6,36.1,70.8,36.6,70.5,36.9z"/>
	<path class="st2" d="M70.5,36.9l-1.8,2.2c-0.3,0.4-0.9,0.4-1.2,0l-0.7-0.9c1.6-0.4,2.2-1.5,2.4-2.2h0.9
		C70.6,36.1,70.8,36.6,70.5,36.9z"/>
	<g>
		<path class="st1" d="M33.1,41.8C33.1,41.8,33.1,41.8,33.1,41.8l0.2-0.7l0.1-0.1c0.7-2.1-0.2-4.4-2.2-5.5c-1.4-0.7-3.1-1.7-4.8-3.1
			c-4.1-3.1-6.9-6.7-8.5-10.7c-0.9-2.3-3.2-3.6-5.6-3.2l-0.3,0c-1,0.2-1.9,0.8-2.3,1.6C9.2,21,9,22,9.3,23
			C13,34.8,23.2,41.1,28.6,43.7C30.3,44.6,32.4,43.7,33.1,41.8z"/>
	</g>
	<path class="st2" d="M33.1,41.8l0.2-0.7l0.1-0.1c0.7-2.1-0.2-4.4-2.2-5.5c-1.4-0.7-3.1-1.7-4.8-3.1c-4.1-3.1-6.9-6.7-8.5-10.7
		c-0.9-2.3-3.2-3.6-5.6-3.2l-0.3,0c-1,0.2-1.9,0.8-2.3,1.6c2.3-0.5,4.9-0.4,6,2.3C17.8,27.6,24,33.2,29,36.2
		C33.9,39.2,33.1,41.7,33.1,41.8z"/>
	<g>
		<g>
			<path class="st0" d="M12.8,8.3c-0.3-0.2-0.7-0.2-1.1,0c-0.6,0.3-0.8,1-0.5,1.6c0.3,0.6,1,2.3,0.6,3.6c-0.2,0.6-0.7,1-1.4,1.3
				c-2.8,1.2-5-2.7-5.1-2.7c-0.3-0.6-1-0.8-1.6-0.4c-0.6,0.3-0.8,1-0.4,1.6c1.1,2,4.2,5.3,8,3.7c1.3-0.6,2.3-1.5,2.7-2.7
				c0.4-1.1,0.4-2.3-0.1-3.8c-0.3-1-0.7-1.7-0.7-1.7C13.2,8.5,13,8.4,12.8,8.3z"/>
		</g>
		<g>
			<path class="st0" d="M10.9,15.5c-0.2-0.1-0.4-0.1-0.6,0c-0.4,0.2-0.6,0.7-0.5,1.1l1.4,3.4c0.2,0.4,0.7,0.6,1.1,0.5
				c0.4-0.2,0.6-0.7,0.5-1.1L11.4,16C11.3,15.7,11.1,15.6,10.9,15.5z"/>
		</g>
	</g>
	<circle class="st5" cx="42.5" cy="11.8" r="1.9"/>
	<path class="st5" d="M42.5,11.1L42.5,11.1c0.1,0,0.3-0.1,0.3-0.3V3.2c0-0.1-0.1-0.3-0.3-0.3l0,0c-0.1,0-0.3,0.1-0.3,0.3v7.6
		C42.3,11,42.4,11.1,42.5,11.1z"/>
	<circle class="st5" cx="64.5" cy="11.8" r="1.9"/>
	<path class="st4" d="M55.6,31.5H38.4c-5.5,0-10-4.5-10-10v0c0-5.5,4.5-10,10-10h17.2c5.5,0,10,4.5,10,10v0
		C65.7,26.9,61.1,31.5,55.6,31.5z"/>
	<path class="st3" d="M63.3,31.5H46.1c-5.5,0-10-4.5-10-10v0c0-5.5,4.5-10,10-10h17.2c5.5,0,10,4.5,10,10v0
		C73.3,26.9,68.8,31.5,63.3,31.5z"/>
	<path class="st0" d="M61.5,24.4H46.3c0,0,1.6,3.2,8.4,3.2C60.3,27.6,61.5,24.4,61.5,24.4z"/>
	
		<rect x="38.1" y="15.3" transform="matrix(-1 -1.224647e-16 1.224647e-16 -1 108.3084 37.6713)" class="st2" width="32.1" height="7"/>
	
		<rect x="64" y="18.3" transform="matrix(-1 -1.224647e-16 1.224647e-16 -1 128.7023 37.2509)" class="st0" width="0.7" height="0.7"/>
	
		<rect x="64.9" y="18.3" transform="matrix(-1 -1.224647e-16 1.224647e-16 -1 130.5569 37.2509)" class="st0" width="0.7" height="0.7"/>
	
		<rect x="64.9" y="19.2" transform="matrix(-1 -1.224647e-16 1.224647e-16 -1 130.5569 39.1659)" class="st0" width="0.7" height="0.7"/>
	
		<rect x="65.9" y="18.3" transform="matrix(-1 -1.224647e-16 1.224647e-16 -1 132.4757 37.2509)" class="st0" width="0.7" height="0.7"/>
	
		<rect x="63.1" y="18.3" transform="matrix(-1 -1.224647e-16 1.224647e-16 -1 126.84 37.2509)" class="st0" width="0.7" height="0.7"/>
	
		<rect x="63.1" y="19.2" transform="matrix(-1 -1.224647e-16 1.224647e-16 -1 126.84 39.1659)" class="st0" width="0.7" height="0.7"/>
	
		<rect x="62.1" y="18.3" transform="matrix(-1 -1.224647e-16 1.224647e-16 -1 124.9778 37.2509)" class="st0" width="0.7" height="0.7"/>
	
		<rect x="64" y="17.3" transform="matrix(-1 -1.224647e-16 1.224647e-16 -1 128.7023 35.3558)" class="st0" width="0.7" height="0.7"/>
	
		<rect x="64" y="16.4" transform="matrix(-1 -1.224647e-16 1.224647e-16 -1 128.7023 33.5969)" class="st0" width="0.7" height="0.7"/>
	
		<rect x="63.1" y="17.3" transform="matrix(-1 -1.224647e-16 1.224647e-16 -1 126.84 35.3558)" class="st0" width="0.7" height="0.7"/>
	
		<rect x="64.9" y="17.3" transform="matrix(-1 -1.224647e-16 1.224647e-16 -1 130.5569 35.3558)" class="st0" width="0.7" height="0.7"/>
	
		<rect x="64" y="19.2" transform="matrix(-1 -1.224647e-16 1.224647e-16 -1 128.7023 39.1659)" class="st0" width="0.7" height="0.7"/>
	
		<rect x="64" y="20.2" transform="matrix(-1 -1.224647e-16 1.224647e-16 -1 128.7023 41.0948)" class="st0" width="0.7" height="0.7"/>
	
		<rect x="44.4" y="18.3" transform="matrix(-1 -1.224647e-16 1.224647e-16 -1 89.5453 37.2509)" class="st0" width="0.7" height="0.7"/>
	
		<rect x="45.3" y="18.3" transform="matrix(-1 -1.224647e-16 1.224647e-16 -1 91.3999 37.2509)" class="st0" width="0.7" height="0.7"/>
	
		<rect x="45.3" y="19.2" transform="matrix(-1 -1.224647e-16 1.224647e-16 -1 91.3999 39.1659)" class="st0" width="0.7" height="0.7"/>
	
		<rect x="46.3" y="18.3" transform="matrix(-1 -1.224647e-16 1.224647e-16 -1 93.3186 37.2509)" class="st0" width="0.7" height="0.7"/>
	
		<rect x="43.5" y="18.3" transform="matrix(-1 -1.224647e-16 1.224647e-16 -1 87.6831 37.2509)" class="st0" width="0.7" height="0.7"/>
	
		<rect x="43.5" y="19.2" transform="matrix(-1 -1.224647e-16 1.224647e-16 -1 87.6831 39.1659)" class="st0" width="0.7" height="0.7"/>
	
		<rect x="42.5" y="18.3" transform="matrix(-1 -1.224647e-16 1.224647e-16 -1 85.8208 37.2509)" class="st0" width="0.7" height="0.7"/>
	
		<rect x="44.4" y="17.3" transform="matrix(-1 -1.224647e-16 1.224647e-16 -1 89.5453 35.3558)" class="st0" width="0.7" height="0.7"/>
	
		<rect x="44.4" y="16.4" transform="matrix(-1 -1.224647e-16 1.224647e-16 -1 89.5453 33.5969)" class="st0" width="0.7" height="0.7"/>
	
		<rect x="43.5" y="17.3" transform="matrix(-1 -1.224647e-16 1.224647e-16 -1 87.6831 35.3558)" class="st0" width="0.7" height="0.7"/>
	
		<rect x="45.3" y="17.3" transform="matrix(-1 -1.224647e-16 1.224647e-16 -1 91.3999 35.3558)" class="st0" width="0.7" height="0.7"/>
	
		<rect x="44.4" y="19.2" transform="matrix(-1 -1.224647e-16 1.224647e-16 -1 89.5453 39.1659)" class="st0" width="0.7" height="0.7"/>
	
		<rect x="44.4" y="20.2" transform="matrix(-1 -1.224647e-16 1.224647e-16 -1 89.5453 41.0948)" class="st0" width="0.7" height="0.7"/>
	<path class="st5" d="M64.5,11.1L64.5,11.1c0.1,0,0.3-0.1,0.3-0.3V3.2c0-0.1-0.1-0.3-0.3-0.3l0,0c-0.1,0-0.3,0.1-0.3,0.3v7.6
		C64.2,11,64.3,11.1,64.5,11.1z"/>
	<g>
		<circle class="st0" cx="43.9" cy="35.3" r="0.5"/>
		<circle class="st0" cx="41.6" cy="35.3" r="0.5"/>
		<circle class="st0" cx="39.4" cy="35.3" r="0.5"/>
	</g>
</g>
<g>
	<g>
		<path class="st6" d="M63.8,49.1l-5.6,2.3V57c0,0,0,0.1,0.1,0.1c0,0,0.1,0,0.1,0h0.1l2.9-1.4v-1.5c0,0,0-0.1-0.1-0.1
			c0,0-0.1,0-0.1,0h-0.1l-1.1,0.5v-2.2l3.8-1.8v5l-1.3,1.9l-6.8,3.2v-9.2l8.1-3.1V49.1z"/>
	</g>
	<g>
		<path class="st0" d="M54.9,60.6l-6.7-3.2l-1.4-1.9v-7.2l2.5,0.9v6.4l2.9,1.4h0.1c0,0,0.1,0,0.1,0c0.1,0,0.1,0,0.1-0.1v-6.4
			l2.4,0.9V60.6z"/>
	</g>
	<path class="st6" d="M55.3,43.1l-14.5,2.3l14.5,5.5l14.3-5.5L55.3,43.1z M55.3,46.7c-0.3,0-0.6-0.1-0.7-0.3l-11.1-0.1l-0.3-0.1
		l11.4-0.3c0.1-0.2,0.4-0.3,0.8-0.3c0.5,0,0.9,0.2,0.9,0.5C56.2,46.5,55.8,46.7,55.3,46.7z"/>
	<polygon class="st6" points="43.1,46.3 42.7,51.4 43.3,52.8 43.8,51.4 43.4,46.4 	"/>
</g>
</svg>
